<?xml version="1.0" encoding="utf-8"?>
<!-- Svg Vector Icons : http://www.onlinewebfonts.com/icon -->
<!DOCTYPE svg PUBLIC "-//W3C//DTD SVG 1.1//EN" "http://www.w3.org/Graphics/SVG/1.1/DTD/svg11.dtd">
<svg version="1.1" xmlns="http://www.w3.org/2000/svg" xmlns:xlink="http://www.w3.org/1999/xlink" x="0px" y="0px" viewBox="0 0 1000 1000" enable-background="new 0 0 1000 1000" xml:space="preserve">
<metadata> Svg Vector Icons : http://www.onlinewebfonts.com/icon </metadata>
<g><g><g id="Layer_1"><g><g><path d="M10,160.2v679.5h980V160.2H10z M556.8,347.1c7.4,0,13.8,1.1,20.2,3.2c5.3-18,24.4-32.9,47.8-35c-2.1,4.2-3.2,9.6-3.2,14.9c0,25.5,25.5,45.7,57.3,45.7c10.6,0,21.2-2.1,29.7-6.4c9.6,15.9,28.7,26.5,52,26.5c2.1,0,5.3,0,7.4,0c-1.1,24.4-26.5,44.6-57.3,44.6c-8.5,0-15.9-1.1-23.4-4.2c-9.6,13.8-28.7,23.4-49.9,23.4c-23.4,0-42.5-10.6-52-26.5c-8.5,4.2-19.1,6.4-29.7,6.4c-31.9,0-57.3-20.2-57.3-45.7C498.4,368.3,525,347.1,556.8,347.1z M102.4,303.6c0-48.8,39.3-88.1,88.1-88.1c48.8,0,88.1,39.3,88.1,88.1c0,48.8-39.3,88.1-88.1,88.1C141.7,390.6,102.4,351.4,102.4,303.6z M855.2,784.5H141.7v-22.3h5.3c36.1-9.6,54.1-44.6,74.3-81.8c19.1-35,38.2-71.1,74.3-87.1c48.8-21.2,82.8,11.7,108.3,37.2c7.4,7.4,13.8,13.8,20.2,19.1c13.8,11.7,26.5,15.9,36.1,13.8c19.1-4.2,36.1-34,51-62.6c20.2-37.2,41.4-76.4,78.6-82.8c24.4-4.2,49.9,5.3,78.6,30.8c28.7,25.5,54.2,61.6,77.5,97.7c31.9,47.8,64.8,96.6,108.3,116.8L855.2,784.5L855.2,784.5z M854.1,355.6c-8.5,0-15.9-1.1-23.4-4.2c-9.6,13.8-28.7,23.4-49.9,23.4c-23.4,0-42.5-10.6-52-26.5c-8.5,4.2-19.1,6.4-29.7,6.4c-31.9,0-57.3-20.2-57.3-45.7c0-25.5,25.5-45.7,57.3-45.7c7.4,0,13.8,1.1,20.2,3.2c5.3-20.2,28.7-36.1,56.3-36.1c27.6,0,51,15.9,56.3,36.1c6.4-2.1,13.8-3.2,22.3-3.2c31.9,0,57.3,20.2,57.3,45.7C911.4,335.4,885.9,355.6,854.1,355.6z"/></g></g></g></g><g></g><g></g><g></g><g></g><g></g><g></g><g></g><g></g><g></g><g></g><g></g><g></g><g></g><g></g><g></g></g>
</svg>